<?xml version="1.0" standalone="no"?>
<!DOCTYPE svg PUBLIC "-//W3C//DTD SVG 20010904//EN"
 "http://www.w3.org/TR/2001/REC-SVG-20010904/DTD/svg10.dtd">
<svg version="1.0" xmlns="http://www.w3.org/2000/svg"
 width="1280.000000pt" height="640.000000pt" viewBox="0 0 1280.000000 640.000000"
 preserveAspectRatio="xMidYMid meet">

<g transform="translate(0.000000,640.000000) scale(0.100000,-0.100000)"
fill="#000000" stroke="none">
<path d="M0 5335 l0 -1065 2580 0 2580 0 0 -799 c0 -874 0 -878 60 -1064 16
-50 50 -132 75 -181 25 -49 45 -90 45 -92 0 -2 -1201 -4 -2670 -4 l-2670 0 0
-1065 0 -1065 6400 0 6400 0 0 1065 0 1065 -2671 0 c-1469 0 -2669 3 -2667 8
2 4 24 50 50 102 25 52 58 131 72 175 55 171 56 191 56 1056 l0 799 2580 0
2580 0 0 1065 0 1065 -6400 0 -6400 0 0 -1065z m6552 55 c81 -66 149 -120 152
-120 4 0 81 43 172 95 91 52 167 95 168 95 1 0 58 -65 126 -145 69 -79 130
-144 135 -144 6 -1 89 28 185 64 138 52 176 63 186 53 9 -10 179 -284 208
-335 4 -7 -50 -142 -120 -300 -70 -159 -135 -307 -145 -330 l-18 -42 -53 23
c-308 135 -681 218 -1048 232 -406 16 -859 -67 -1227 -224 -40 -17 -74 -28
-77 -24 -32 55 -285 656 -280 665 29 52 199 325 209 335 9 10 46 0 189 -53 98
-36 181 -65 185 -63 5 2 61 64 126 138 64 74 121 139 125 144 4 4 82 -35 174
-88 91 -53 168 -96 171 -96 4 0 73 54 153 120 81 66 149 120 152 120 4 0 72
-54 152 -120z m1068 -1924 c0 -813 -2 -860 -46 -1015 -30 -109 -128 -306 -194
-392 -109 -144 -281 -289 -435 -367 -197 -99 -440 -144 -655 -123 -278 29
-517 137 -718 326 -158 149 -265 314 -331 511 -59 177 -61 202 -61 1057 l0
777 1220 0 1220 0 0 -774z"/>
<path d="M6255 5356 c-80 -66 -143 -125 -147 -138 -5 -20 -6 -21 -7 -3 -1 15
-44 44 -166 113 -91 52 -169 92 -174 90 -7 -2 -214 -233 -255 -285 -1 -2 -80
27 -176 62 -95 36 -177 65 -181 65 -11 0 -199 -305 -199 -323 0 -10 251 -592
265 -614 1 -1 50 17 111 41 442 174 984 241 1439 177 287 -40 548 -106 749
-192 38 -16 70 -28 71 -27 1 2 15 35 32 73 l31 70 -47 21 c-25 12 -131 50
-234 85 -159 53 -190 61 -199 48 -8 -11 -9 -10 -4 4 3 10 6 27 6 38 0 11 7 19
16 19 28 0 220 -60 342 -107 64 -25 124 -47 132 -50 11 -3 25 16 48 68 18 40
29 76 25 80 -16 14 -302 119 -398 145 -55 15 -104 31 -108 34 -4 4 -4 16 0 27
8 21 9 21 127 -13 65 -19 182 -59 260 -89 77 -30 144 -51 147 -47 12 13 89
194 89 209 0 16 -188 323 -197 323 -14 0 -339 -123 -350 -132 -9 -7 -13 -7
-13 0 0 12 -236 285 -251 290 -5 2 -84 -39 -176 -92 l-166 -95 -106 87 c-58
47 -124 101 -145 119 -22 18 -42 33 -45 33 -3 0 -69 -52 -146 -114z m31 -174
c-9 -2 -25 -2 -36 0 -20 3 -20 4 -4 27 l17 24 20 -24 c17 -21 17 -24 3 -27z
m234 0 c-35 -2 -56 1 -61 10 -12 18 -4 21 22 7 20 -10 25 -9 38 11 l15 22 19
-23 19 -24 -52 -3z m-176 13 c-7 -17 -34 -21 -34 -4 0 5 4 8 9 4 5 -3 12 -1
16 5 9 15 15 12 9 -5z m-130 -10 c9 -9 36 -16 68 -17 l53 -1 -45 -7 -45 -7 59
-1 c53 -2 58 -4 53 -22 -3 -11 -1 -20 5 -20 5 0 6 -6 1 -12 -4 -7 -6 -21 -5
-30 2 -11 -3 -18 -13 -18 -9 0 -14 -4 -11 -9 10 -15 -5 -41 -23 -41 -10 0 -21
-3 -25 -7 -21 -21 -96 23 -81 47 3 6 -1 10 -10 10 -11 0 -15 5 -12 14 3 7 0
19 -6 25 -8 8 -8 11 1 11 9 0 10 5 2 19 -15 29 -13 31 19 25 16 -3 31 -2 35 4
3 5 -1 9 -10 8 -9 0 -23 9 -31 22 -17 25 -3 30 21 7z m395 -9 c-11 -22 -15
-24 -73 -19 -77 7 -85 13 -17 13 33 0 58 5 67 15 23 23 35 18 23 -9z m21 -41
c0 -6 -5 -16 -12 -23 -9 -9 -9 -12 2 -12 10 0 11 -3 3 -11 -6 -6 -9 -18 -6
-25 3 -8 1 -14 -5 -14 -5 0 -13 -11 -16 -25 -4 -14 -13 -25 -21 -25 -8 0 -15
-4 -15 -8 0 -4 -9 -8 -20 -9 -11 -1 -20 2 -20 8 0 5 -3 8 -7 8 -28 -5 -45 2
-39 17 4 10 2 13 -6 8 -8 -5 -9 -2 -5 9 4 11 1 17 -8 17 -18 0 -19 12 -3 28 7
7 8 12 2 12 -6 0 -11 14 -11 31 l0 30 94 -3 c56 -2 93 -7 93 -13z m995 -15 c4
-12 1 -28 -7 -38 -11 -15 -11 -15 2 -6 9 8 23 9 38 3 27 -10 28 -20 3 -36 -13
-8 -17 -19 -14 -36 6 -29 -10 -42 -34 -28 -14 7 -23 5 -40 -11 -20 -19 -23
-19 -29 -4 -3 9 -4 25 -1 35 3 13 0 18 -8 14 -8 -2 -23 1 -35 7 l-22 12 22 15
c14 10 21 24 20 42 -3 40 -2 41 27 30 21 -8 30 -6 42 6 20 20 28 19 36 -5z
m-1508 -57 c-3 -10 -5 -2 -5 17 0 19 2 27 5 18 2 -10 2 -26 0 -35z m683 17 c0
-5 -4 -10 -10 -10 -5 0 -10 5 -10 10 0 6 5 10 10 10 6 0 10 -4 10 -10z m105
-28 c5 -3 -1 -9 -14 -12 -14 -3 -26 -11 -28 -17 -7 -19 57 -83 82 -83 13 0 26
-3 28 -7 3 -5 44 -8 91 -8 47 0 86 -1 86 -3 0 -2 -11 -13 -25 -26 -16 -15 -28
-42 -35 -76 -7 -40 -19 -62 -47 -91 -21 -22 -44 -39 -52 -39 -10 0 -5 11 14
30 27 28 28 31 13 47 -16 15 -19 14 -52 -11 -20 -15 -36 -31 -36 -37 0 -5 -8
-9 -17 -9 -14 0 -13 3 5 20 12 12 22 31 22 44 0 19 -5 23 -31 22 -33 -1 -42
-10 -59 -58 -16 -48 -28 -31 -12 18 11 33 12 48 4 56 -9 9 -16 2 -27 -25 -8
-20 -20 -37 -25 -37 -5 0 -2 16 7 35 13 28 15 42 7 63 -6 15 -9 39 -8 52 12
93 12 111 -2 106 -22 -8 -27 13 -9 40 15 24 21 25 63 19 26 -4 51 -10 57 -13z
m-1665 -7 c8 -9 22 -12 41 -8 27 5 29 3 29 -25 0 -16 7 -35 15 -42 21 -18 19
-29 -9 -36 -16 -4 -26 -15 -30 -35 -6 -29 -6 -29 -31 -13 -16 10 -34 14 -51
10 -25 -7 -26 -5 -22 24 4 23 0 34 -14 41 -25 13 -23 28 7 39 14 5 25 17 25
28 0 33 20 42 40 17z m887 -102 c-3 -10 -5 -2 -5 17 0 19 2 27 5 18 2 -10 2
-26 0 -35z m293 -42 c15 -28 13 -31 -20 -31 -34 0 -35 2 -18 30 16 25 25 25
38 1z m-74 -16 c16 -12 16 -14 3 -15 -9 0 -22 7 -29 15 -16 19 0 19 26 0z
m134 0 c-7 -8 -20 -15 -29 -15 -13 1 -13 3 3 15 26 19 42 19 26 0z m-343 -47
c-3 -8 -6 -5 -6 6 -1 11 2 17 5 13 3 -3 4 -12 1 -19z m296 15 c-18 -2 -48 -2
-65 0 -18 2 -4 4 32 4 36 0 50 -2 33 -4z m57 -32 c-7 -14 -6 -21 3 -25 9 -4 9
-8 1 -11 -7 -3 -10 -15 -7 -25 3 -11 1 -20 -5 -20 -5 0 -13 -11 -16 -25 -6
-22 -22 -30 -48 -26 -5 0 -8 -4 -8 -10 0 -8 -4 -9 -13 0 -8 6 -17 8 -20 4 -4
-3 -7 -1 -7 5 0 7 -7 9 -17 5 -13 -5 -15 -2 -10 11 5 11 3 15 -5 10 -8 -5 -9
-2 -5 9 4 11 1 17 -9 17 -9 0 -14 7 -12 18 1 9 -1 23 -5 30 -5 7 -4 12 3 12 8
0 8 6 0 20 -10 19 -8 20 90 20 96 0 100 -1 90 -19z m-1010 -179 c-67 -120
-245 -119 -306 1 l-17 32 24 -22 c57 -52 136 -65 205 -34 50 23 82 62 97 120
l12 45 3 -52 c2 -39 -2 -62 -18 -90z m667 61 c-3 -10 -5 -4 -5 12 0 17 2 24 5
18 2 -7 2 -21 0 -30z m1338 -33 c8 -13 -25 -13 -45 0 -12 8 -9 10 12 10 15 0
30 -4 33 -10z m-1328 -87 c-3 -10 -5 -4 -5 12 0 17 2 24 5 18 2 -7 2 -21 0
-30z"/>
<path d="M6235 5100 c3 -5 11 -10 16 -10 6 0 7 5 4 10 -3 6 -11 10 -16 10 -6
0 -7 -4 -4 -10z"/>
<path d="M6285 5100 c-3 -5 -1 -10 4 -10 6 0 11 5 11 10 0 6 -2 10 -4 10 -3 0
-8 -4 -11 -10z"/>
<path d="M6505 5100 c3 -5 8 -10 11 -10 2 0 4 5 4 10 0 6 -5 10 -11 10 -5 0
-7 -4 -4 -10z"/>
<path d="M6550 5100 c0 -5 5 -10 10 -10 6 0 10 5 10 10 0 6 -4 10 -10 10 -5 0
-10 -4 -10 -10z"/>
<path d="M7570 5050 c0 -5 7 -10 16 -10 8 0 12 5 9 10 -3 6 -10 10 -16 10 -5
0 -9 -4 -9 -10z"/>
<path d="M5235 4971 c-6 -11 9 -23 19 -14 9 9 7 23 -3 23 -6 0 -12 -4 -16 -9z"/>
<path d="M5230 3940 l0 -260 230 0 230 0 0 260 0 260 -230 0 -230 0 0 -260z"/>
<path d="M6170 3940 l0 -260 230 0 230 0 0 260 0 260 -230 0 -230 0 0 -260z"/>
<path d="M7110 3940 l0 -260 230 0 230 0 0 260 0 260 -230 0 -230 0 0 -260z"/>
<path d="M5700 3425 l0 -255 230 0 230 0 0 255 0 255 -230 0 -230 0 0 -255z"/>
<path d="M6640 3425 l0 -255 230 0 230 0 0 255 0 255 -230 0 -230 0 0 -255z"/>
<path d="M5230 2905 l0 -255 230 0 230 0 0 255 0 255 -230 0 -230 0 0 -255z"/>
<path d="M6170 2905 l0 -255 230 0 230 0 0 255 0 255 -230 0 -230 0 0 -255z"/>
<path d="M7110 2905 l0 -255 228 2 227 3 3 253 2 252 -230 0 -230 0 0 -255z"/>
<path d="M5700 2390 l0 -260 230 0 230 0 0 260 0 260 -230 0 -230 0 0 -260z"/>
<path d="M6640 2390 l0 -260 230 0 230 0 0 260 0 260 -230 0 -230 0 0 -260z"/>
<path d="M5461 2088 c41 -54 165 -183 202 -209 l27 -20 0 135 0 136 -131 0
-131 0 33 -42z"/>
<path d="M6170 1885 l0 -245 28 -7 c35 -10 369 -10 405 0 l27 7 0 245 0 245
-230 0 -230 0 0 -245z"/>
<path d="M7110 1994 l0 -135 28 19 c54 39 222 224 222 245 0 4 -56 7 -125 7
l-125 0 0 -136z"/>
</g>
</svg>
